<svg id="Layer_1" enable-background="new 0 0 512 512" height="512" viewBox="0 0 512 512" width="512" xmlns="http://www.w3.org/2000/svg"><g><path d="m497 512h-482c-8.284 0-15-6.716-15-15v-192.816c0-70.392 56.955-127.451 127.451-127.451h257.083c70.395 0 127.467 56.93 127.467 127.451v192.816c-.001 8.284-6.717 15-15.001 15z" fill="#233743"/><path d="m512 497v-192.816c0-70.521-57.072-127.451-127.467-127.451h-128.533v335.267h241c8.284 0 15-6.716 15-15z" fill="#0a141e"/><path d="m365.157 44.346c-60.158-59.128-158.156-59.128-218.314 0-2.829 2.781-4.376 6.578-4.376 10.507v201.147c0 8.284 6.716 15 15 15h197.066c8.284 0 15-6.716 15-15v-201.147c0-3.929-1.547-7.726-4.376-10.507z" fill="#ffe1d0"/><path d="m369.533 256v-201.147c0-3.929-1.547-7.727-4.376-10.507-30.079-29.564-69.618-44.346-109.157-44.346v271h98.533c8.285 0 15-6.716 15-15z" fill="#ffc1b6"/><path d="m256 431.667c-12.598 0-24.435-4.907-33.332-13.816-5.505-5.498-9.482-12.128-11.715-19.369-27.231-4.48-49.833-22.889-60.22-47.641-39.551-4.42-70.4-38.062-70.4-78.774v-48.2h351.333v48.2c0 40.712-30.849 74.354-70.4 78.774-10.387 24.752-32.989 43.161-60.221 47.641-2.233 7.243-6.214 13.876-11.728 19.383-8.882 8.895-20.719 13.802-33.317 13.802z" fill="#faf7f5"/><path d="m301.046 398.482c27.232-4.48 49.834-22.889 60.221-47.641 39.551-4.42 70.4-38.062 70.4-78.774v-48.2h-175.667v207.8c12.598 0 24.435-4.907 33.318-13.802 5.514-5.507 9.495-12.14 11.728-19.383z" fill="#dce0e3"/><path d="m127.467 142.467h-16.067c-16.875 0-32.745-6.571-44.688-18.504-11.941-11.951-18.512-27.822-18.512-44.696 0-34.849 28.351-63.2 63.2-63.2 16.875 0 32.745 6.571 44.688 18.503 11.941 11.951 18.512 27.822 18.512 44.697v16.067c0 8.284-6.716 15-15 15h-17.133v17.133c0 8.284-6.716 15-15 15z" fill="#faf7f5"/><path d="m400.6 142.467h-16.067c-8.284 0-15-6.716-15-15v-17.133h-17.133c-8.284 0-15-6.716-15-15v-16.067c0-16.875 6.571-32.745 18.503-44.688 11.952-11.941 27.822-18.512 44.697-18.512 34.849 0 63.2 28.351 63.2 63.2 0 16.875-6.571 32.745-18.503 44.688-11.952 11.941-27.822 18.512-44.697 18.512z" fill="#dce0e3"/><path d="m127.467 206.733h-32.134c-25.989 0-47.133-21.144-47.133-47.133s21.144-47.133 47.133-47.133h32.133c8.284 0 15 6.716 15 15v64.267c.001 8.284-6.715 14.999-14.999 14.999z" fill="#ffc1b6"/><path d="m416.667 206.733h-32.133c-8.284 0-15-6.716-15-15v-64.267c0-8.284 6.716-15 15-15h32.133c25.989 0 47.133 21.144 47.133 47.133s-21.144 47.134-47.133 47.134z" fill="#fc9e98"/><path d="m208.867 271h-81.4c-25.989 0-47.133-21.144-47.133-47.133 0-25.808 20.855-47.133 47.133-47.133h81.4c25.989 0 47.133 21.144 47.133 47.133s-21.144 47.133-47.133 47.133z" fill="#dce0e3"/><path d="m384.533 271h-81.4c-25.989 0-47.133-21.144-47.133-47.133 0-25.808 20.855-47.133 47.133-47.133h81.4c25.989 0 47.133 21.144 47.133 47.133s-21.144 47.133-47.133 47.133z" fill="#bec8d2"/><path d="m384.533 80.333h-96.4c-8.284 0-15 6.716-15 15v22.407c-5.537-1.646-11.311-2.518-17.133-2.518s-11.597.872-17.133 2.519v-22.408c0-8.284-6.716-15-15-15h-96.4c-8.284 0-15 6.716-15 15v96.4c0 8.284 6.716 15 15 15h96.4c8.284 0 15-6.716 15-15v-41.215c5.019-3.405 11.025-5.296 17.133-5.296 6.107 0 12.111 1.89 17.133 5.297v41.214c0 8.284 6.716 15 15 15h96.4c8.284 0 15-6.716 15-15v-96.4c0-8.284-6.716-15-15-15z" fill="#0b6275"/><path d="m384.533 80.333h-96.4c-8.284 0-15 6.716-15 15v22.407c-5.537-1.646-11.311-2.518-17.133-2.518v30c6.107 0 12.111 1.89 17.133 5.297v41.214c0 8.284 6.716 15 15 15h96.4c8.284 0 15-6.716 15-15v-96.4c0-8.284-6.716-15-15-15z" fill="#233743"/><path d="m142.467 110.333h66.4v66.4h-66.4z" fill="#faf7f5"/><path d="m303.133 110.333h66.4v66.4h-66.4z" fill="#dce0e3"/></g></svg>